<svg xmlns="http://www.w3.org/2000/svg" width="415.669" height="415.669" viewBox="0 0 415.669 415.669">
  <path id="close_large_icon" d="M279.85,211.275l128.59-128.59a36.354,36.354,0,0,0,0-51.431L391.3,14.11a36.354,36.354,0,0,0-51.431,0L211.275,142.7,82.685,14.086a36.354,36.354,0,0,0-51.431,0L14.086,31.23a36.354,36.354,0,0,0,0,51.431L142.7,211.275,14.11,339.866a36.354,36.354,0,0,0,0,51.431l17.144,17.144a36.354,36.354,0,0,0,51.431,0l128.59-128.59,128.59,128.59a36.354,36.354,0,0,0,51.431,0L408.441,391.3a36.354,36.354,0,0,0,0-51.431Z" transform="translate(-3.429 -3.429)" fill="#d32f2f"/>
</svg>
