<svg xmlns="http://www.w3.org/2000/svg" xmlns:xlink="http://www.w3.org/1999/xlink" width="19.894" height="19" viewBox="0 0 19.894 19">
  <defs>
    <linearGradient id="linear-gradient" x1="0.463" y1="0.914" x2="0.463" y2="-0.169" gradientUnits="objectBoundingBox">
      <stop offset="0" stop-color="#424242"/>
      <stop offset="0.427" stop-color="#9e9e9e"/>
      <stop offset="1" stop-color="#cecece"/>
    </linearGradient>
  </defs>
  <g id="favourites" transform="translate(0 -11.501)">
    <path id="Path_37" data-name="Path 37" d="M10.679,11.956l2.631,5.332,5.884.855a.816.816,0,0,1,.452,1.392l-4.258,4.15,1.005,5.86a.816.816,0,0,1-1.184.861L9.947,27.639,4.684,30.405A.816.816,0,0,1,3.5,29.545L4.5,23.685.247,19.535A.816.816,0,0,1,.7,18.142l5.884-.855,2.631-5.332A.816.816,0,0,1,10.679,11.956Z" transform="translate(0)" fill="url(#linear-gradient)"/>
    <path id="Path_38" data-name="Path 38" d="M259.364,17.288l-2.631-5.332A.807.807,0,0,0,256,11.5V21.6Z" transform="translate(-246.054 0)" fill="url(#linear-gradient)"/>
    <path id="Path_39" data-name="Path 39" d="M261.442,202l4.258-4.15a.806.806,0,0,0,.21-.826L256,199.906Z" transform="translate(-246.053 -178.311)" fill="url(#linear-gradient)"/>
    <path id="Path_40" data-name="Path 40" d="M262.125,280.035,256,271.289v6.044l5.263,2.767A.807.807,0,0,0,262.125,280.035Z" transform="translate(-246.053 -249.694)" fill="url(#linear-gradient)"/>
    <path id="Path_41" data-name="Path 41" d="M96.217,271.289l-5.442,2.09-1.005,5.86a.807.807,0,0,0,.322.8Z" transform="translate(-86.27 -249.694)" fill="url(#linear-gradient)"/>
    <path id="Path_42" data-name="Path 42" d="M.968,161.851l9.909,2.886-3.363-4.307-5.884.855a.807.807,0,0,0-.662.567Z" transform="translate(-0.931 -143.142)" fill="url(#linear-gradient)"/>
    <path id="Path_43" data-name="Path 43" d="M4.511,202l-4.258-4.15a.806.806,0,0,1-.21-.826l9.909,2.886Z" transform="translate(-0.006 -178.312)" fill="url(#linear-gradient)"/>
  </g>
</svg>
