<svg width="24" height="24" viewBox="0 0 24 24" fill="none" xmlns="http://www.w3.org/2000/svg">
<path d="M12 23C5.92977 23 1 18.0702 1 12C1 5.92977 5.92977 1 12 1C18.0702 1 23 5.92977 23 12C23 18.0702 18.0702 23 12 23ZM12 3.20736C7.14381 3.20736 3.20736 7.14381 3.20736 12C3.20736 16.8562 7.14381 20.7926 12 20.7926C16.8562 20.7926 20.7926 16.8562 20.7926 12C20.7926 7.14381 16.8562 3.20736 12 3.20736Z" fill="#172B4D"/>
<path d="M14.796 15.8997C14.5017 15.8997 14.2442 15.7893 14.0234 15.5686L8.43145 9.9766C7.98997 9.53512 7.98997 8.83613 8.43145 8.43145C8.87292 7.98997 9.57191 7.98997 9.9766 8.43145L15.5686 14.0234C16.01 14.4649 16.01 15.1639 15.5686 15.5686C15.3478 15.7893 15.0903 15.8997 14.796 15.8997Z" fill="#172B4D"/>
<path d="M9.20402 15.8997C8.90971 15.8997 8.65218 15.7893 8.43145 15.5686C7.98997 15.1271 7.98997 14.4281 8.43145 14.0234L14.0234 8.43145C14.4649 7.98997 15.1639 7.98997 15.5686 8.43145C16.01 8.87292 16.01 9.57191 15.5686 9.9766L9.9766 15.5686C9.79265 15.7893 9.49833 15.8997 9.20402 15.8997Z" fill="#172B4D"/>
</svg>
