<svg xmlns="http://www.w3.org/2000/svg" viewBox="0 0 123.68 209.65"><title>Asset 1</title><g id="Layer_2" data-name="Layer 2"><g id="Layer_1-2" data-name="Layer 1"><path d="M59,171.23a19.37,19.37,0,0,0-19,19.05c0,.32,0,.65,0,1a19.06,19.06,0,0,0,19.68,18.39H59a19.21,19.21,0,0,0,0-38.41Z"/><path d="M62.72,0a79.94,79.94,0,0,0-60,24.48,12.49,12.49,0,0,0-2.72,8A13.28,13.28,0,0,0,12.8,45.64a13.5,13.5,0,0,0,9-3.37,52.36,52.36,0,0,1,37.92-16c21.6,0,32,11.68,32,25.43,0,29.45-52.32,33.13-52.32,71.36,0,9.29,5.76,26.41,17.76,26.41h.32A11.69,11.69,0,0,0,69.12,137.8c0-4.32-3-8-3-12.32,0-28.8,56.32-32.8,57.6-77.44,0-27.2-23-48-61-48Z"/></g></g></svg>