<svg width="24" height="24" viewBox="0 0 24 24" fill="none" xmlns="http://www.w3.org/2000/svg">
<g clip-path="url(#clip0)">
<path d="M12.0682 23C10.9386 23 9.8454 22.8178 8.75222 22.417C6.38367 21.506 4.48882 19.7569 3.43208 17.4612C1.28217 12.7606 3.21345 7.29467 7.87768 4.99899C8.42427 4.74392 9.08018 4.96255 9.33525 5.50914C9.59033 6.05573 9.37169 6.71164 8.8251 6.96672C5.25405 8.7158 3.76004 12.9063 5.43625 16.5503C6.23791 18.3358 7.69548 19.684 9.51745 20.3399C11.3394 21.0323 13.3436 20.9594 15.0927 20.1213C16.8782 19.3196 18.2264 17.8621 18.8824 16.0401C19.5747 14.2181 19.5018 12.214 18.6637 10.4649C17.9714 8.93444 16.7324 7.6955 15.2384 6.96672C14.6918 6.71164 14.4732 6.05573 14.7283 5.50914C14.9833 4.96255 15.6393 4.74392 16.1858 4.99899C18.1536 5.94641 19.7205 7.58618 20.6314 9.55391C21.6882 11.8496 21.7975 14.4368 20.8865 16.8053C19.9755 19.1739 18.2629 21.0687 15.9308 22.1255C14.7283 22.7085 13.4165 23 12.0682 23Z" fill="#172B4D"/>
<path d="M12.0683 13.1614C11.4488 13.1614 10.9751 12.6877 10.9751 12.0682V2.19315C10.9751 1.57369 11.4488 1.09998 12.0683 1.09998C12.6877 1.09998 13.1615 1.57369 13.1615 2.19315V12.0682C13.1615 12.6512 12.6513 13.1614 12.0683 13.1614Z" fill="#172B4D"/>
</g>
<defs>
<clipPath id="clip0">
<rect x="2.55762" y="1.09998" width="18.9849" height="21.9" fill="white"/>
</clipPath>
</defs>
</svg>
