<svg xmlns="http://www.w3.org/2000/svg" width="21.801" height="21.803" viewBox="0 0 21.801 21.803">
  <path id="home" d="M21.215,9.482h0L12.319.588a2.007,2.007,0,0,0-2.839,0L.592,9.476l-.009.009a2.006,2.006,0,0,0,1.336,3.42q.031,0,.062,0h.354v6.545A2.352,2.352,0,0,0,4.684,21.8h3.48a.639.639,0,0,0,.639-.639V16.032A1.073,1.073,0,0,1,9.874,14.96h2.052A1.073,1.073,0,0,1,13,16.032v5.131a.639.639,0,0,0,.639.639h3.48a2.352,2.352,0,0,0,2.349-2.349V12.908h.329a2.007,2.007,0,0,0,1.42-3.426Zm0,0" transform="translate(0 0.001)" fill="#d81b60"/>
</svg>
