<svg xmlns="http://www.w3.org/2000/svg" width="23.7" height="22.19" viewBox="0 0 23.7 22.19">
  <g id="repeat-hand-drawn-circular-arrow-symbol" transform="translate(0 -15.53)">
    <g id="Group_70" data-name="Group 70" transform="translate(0 15.53)">
      <path id="Path_44" data-name="Path 44" d="M21.332,23.481c-.185.173-.364.351-.541.532A9.523,9.523,0,0,0,18.63,19.43c-3.245-3.762-9.1-5.274-13.37-2.406a12.056,12.056,0,0,0-5.1,11.8c.87,4.931,4.914,9.494,10.548,8.831a12.288,12.288,0,0,0,7.758-4.068,1.29,1.29,0,0,0,.109-.113,1.232,1.232,0,0,0,.116-.153,1.168,1.168,0,0,0,.165-.4l.024-.123a1.3,1.3,0,0,0-1.057-1.482,1.339,1.339,0,0,0-1.117.295,1.233,1.233,0,0,0-.287.353c-.016.03-.037.058-.05.09l-.019-.01A8.473,8.473,0,0,1,8.566,35.1c-4.951-.917-6.721-6.614-5.54-10.732,1.019-3.555,4.41-7.144,8.658-6.25a8.565,8.565,0,0,1,6.085,4.691c.1.248.184.5.258.747a11.907,11.907,0,0,0-1.091-.81,1.389,1.389,0,0,0-1.856.1,1.224,1.224,0,0,0,.139,1.776,10.542,10.542,0,0,1,2.1,1.8,10,10,0,0,1,1,1.325c.065.1.132.207.195.314a1.1,1.1,0,0,0,1.227.57,1.124,1.124,0,0,0,.919-.415c.144-.194.292-.385.44-.576.161-.207.325-.411.491-.613a19.449,19.449,0,0,1,1.741-1.875C24.533,24.031,22.526,22.367,21.332,23.481Z" transform="translate(0 -15.53)" fill="#d81b60"/>
    </g>
  </g>
</svg>
