<svg xmlns="http://www.w3.org/2000/svg" width="302.955" height="350.749" viewBox="0 0 302.955 350.749">
  <g id="play" transform="translate(-34.883 0)">
    <g id="Group_64" data-name="Group 64" transform="translate(34.883 0)">
      <path id="Path_2" data-name="Path 2" d="M315.056,134.9,107.894,7.2a47.9,47.9,0,0,0-73.011,40.79V302.226c0,26.612,21.442,48.378,47.8,48.522h.214a48.069,48.069,0,0,0,24.834-7.473,13.677,13.677,0,0,0-14.246-23.351,20.987,20.987,0,0,1-10.655,3.469,21.253,21.253,0,0,1-20.59-21.167V47.994a20.546,20.546,0,0,1,31.309-17.5l207.162,127.7a20.547,20.547,0,0,1-.09,35.048L150.839,284.946a13.677,13.677,0,1,0,14.284,23.329l149.761-91.7a47.9,47.9,0,0,0,.173-81.678Z" transform="translate(-34.883 0)" fill="#388e3c"/>
    </g>
  </g>
</svg>
