<svg id="power_icon" xmlns="http://www.w3.org/2000/svg" width="351.126" height="351.125" viewBox="0 0 351.126 351.125">
  <path id="Path_3" data-name="Path 3" d="M250.716,189.279a13.716,13.716,0,0,0,13.716-13.716V13.716a13.716,13.716,0,1,0-27.432,0V175.563A13.715,13.715,0,0,0,250.716,189.279Z" transform="translate(-74.467)" fill="#d81b60"/>
  <path id="Path_4" data-name="Path 4" d="M252.192,306.759a147.858,147.858,0,0,1-76.629,21.332c-81.68,0-148.131-66.451-148.131-148.131A148.209,148.209,0,0,1,125.975,40.639a13.716,13.716,0,1,0-9.181-25.85A175.448,175.448,0,1,0,266.4,330.222a13.716,13.716,0,0,0-14.212-23.463Z" transform="translate(0 -4.397)" fill="#d81b60"/>
  <path id="Path_5" data-name="Path 5" d="M418.28,78.815a175.459,175.459,0,0,0-82.857-62.983A13.716,13.716,0,1,0,326.008,41.6C384.2,62.86,423.3,118.591,423.3,180.274a147.542,147.542,0,0,1-25.118,82.216,13.715,13.715,0,1,0,22.8,15.246,174.7,174.7,0,0,0-2.7-198.921Z" transform="translate(-99.602 -4.711)" fill="#d81b60"/>
</svg>
