<svg id="questions_icon" xmlns="http://www.w3.org/2000/svg" width="293.621" height="415.365" viewBox="0 0 293.621 415.365">
  <path id="Path_1" data-name="Path 1" d="M440.963,788.2H420.9a25.63,25.63,0,0,0-25.611,25.61v27.7A25.631,25.631,0,0,0,420.9,867.123h20.062a25.63,25.63,0,0,0,25.61-25.611v-27.7A25.6,25.6,0,0,0,440.963,788.2Z" transform="translate(-287.434 -451.758)" fill="#d81b60"/>
  <path id="Path_2" data-name="Path 2" d="M154.681,121.993l37.008,4.61a25.628,25.628,0,0,0,27.1-16.348q8-20.937,22.281-33Q261.308,60.228,291.4,60.186q31.181,0,49.642,16.348c12.293,10.927,18.4,23.989,18.4,39.313a48.929,48.929,0,0,1-10.373,30.221q-6.723,8.708-41.276,36.666-34.575,27.98-46.057,50.41c-7.854,15.282-10.585,32.227-11.269,49.216a25.61,25.61,0,0,0,25.611,26.678h20.915A25.667,25.667,0,0,0,322.518,285.6c.854-9.518,2.433-16.732,4.824-21.641q6.018-12.614,31.031-33.337,48.339-40.018,63.088-63.3,14.726-23.242,14.769-49.3,0-47.06-40.124-82.552Q356.026,0,288.114,0q-64.54,0-104.194,35-33.807,29.837-41.063,70.643A13.8,13.8,0,0,0,154.681,121.993Z" transform="translate(-142.61 0)" fill="#d81b60"/>
</svg>
