<svg id="role_icon" xmlns="http://www.w3.org/2000/svg" width="404.366" height="351.833" viewBox="0 0 404.366 351.833">
  <path id="Path_13" data-name="Path 13" d="M251.775,98.281a16.484,16.484,0,1,0,16.484,16.484A16.484,16.484,0,0,0,251.775,98.281Zm0,23.417a6.932,6.932,0,1,1,6.932-6.932,6.932,6.932,0,0,1-6.932,6.932Z" transform="translate(-49.592 -47.908)" fill="#d81b60"/>
  <path id="Path_14" data-name="Path 14" d="M401.371,257.082h-7.847l-50.057-119.63A36.014,36.014,0,0,0,369.22,118.42a7,7,0,0,1,3.276-3.184,12.671,12.671,0,1,0-10.707-22.97,32.484,32.484,0,0,0-15.07,14.511,10.693,10.693,0,0,1-9.448,5.918,10.806,10.806,0,0,1-9.447-6.034,31.945,31.945,0,0,0-28.271-17.534h-65.9c-2.99-7.164-8.778-12.533-15.146-15.929V39.623A4.716,4.716,0,0,0,213.655,35H194.711a4.716,4.716,0,0,0-4.856,4.624V73.2c-6.368,3.4-12.156,8.765-15.146,15.929H108.872a31.933,31.933,0,0,0-28.249,17.5,10.559,10.559,0,0,1-18.991.088A32.417,32.417,0,0,0,46.588,92.255,12.681,12.681,0,1,0,35.87,115.241a6.981,6.981,0,0,1,3.264,3.169A36.078,36.078,0,0,0,64.9,137.444L14.843,257.082H7a4.935,4.935,0,0,0-5,4.735v4.875a69.252,69.252,0,0,0,138.5,0v-4.876a4.747,4.747,0,0,0-4.783-4.735h-7.846l-50.1-119.718a36.179,36.179,0,0,0,25.338-19.008,6.628,6.628,0,0,1,5.755-3.757h66a32.419,32.419,0,0,0,14.988,15.913V283.35h-3.831a4.9,4.9,0,0,0-4.925,4.771v37.417H153.423a5.191,5.191,0,0,0-4.96,5.065v19.611H129.227a4.435,4.435,0,0,0-4.644,4.5v27.494a4.537,4.537,0,0,0,4.644,4.624H278.349a4.532,4.532,0,0,0,4.637-4.624V354.712a4.43,4.43,0,0,0-4.637-4.5H259.9V330.6a5.191,5.191,0,0,0-4.96-5.065H227.267V288.121a4.9,4.9,0,0,0-4.925-4.771h-3.831V130.512A32.419,32.419,0,0,0,233.5,114.6h66.055a6.647,6.647,0,0,1,5.763,3.781,36.093,36.093,0,0,0,25.27,18.984l-50.1,119.718h-7.846a4.747,4.747,0,0,0-4.783,4.735v4.876a69.252,69.252,0,0,0,138.5,0v-4.876A4.935,4.935,0,0,0,401.371,257.082Zm-330.012,69.2a59.681,59.681,0,0,1-55.583-38.152H126.94A59.68,59.68,0,0,1,71.358,326.278Zm59.593-59.644v.059a60.7,60.7,0,0,1-1.2,11.881H12.965a60.869,60.869,0,0,1-1.413-11.881v-.059Zm-13.432-9.552H25.2l46.161-110.3Zm-8.647-152.035a16.137,16.137,0,0,0-14.232,8.915,26.353,26.353,0,0,1-47.026.04,16.561,16.561,0,0,0-7.806-7.467,3.068,3.068,0,0,1-1.649-2.82,3.025,3.025,0,0,1,1.412-2.584,3.088,3.088,0,0,1,3-.2,22.845,22.845,0,0,1,10.58,10.2,20.073,20.073,0,0,0,35.95-.116,22.414,22.414,0,0,1,19.771-12.344h63.437c-.089,1.592-.141,2.016-.141,3.01a29.529,29.529,0,0,0,.169,3.358Zm90.535-60.5h9.552V70.188a32.958,32.958,0,0,0-9.552,0Zm74.028,315.214v17.512h-139.3V359.766ZM250.351,335.09v15.124H158.015V335.09ZM217.715,292.9v32.636H190.651V292.9Zm-18.308-9.552V133.522a32.963,32.963,0,0,0,9.552,0V283.35Zm4.776-159.032a22.463,22.463,0,1,1,22.463-22.463A22.463,22.463,0,0,1,204.183,124.318ZM313.8,113.988a16.151,16.151,0,0,0-14.245-8.941H236.029a29.511,29.511,0,0,0,.169-3.358c0-.993-.052-1.418-.141-3.01h63.5a22.432,22.432,0,0,1,19.785,12.375,20.036,20.036,0,0,0,35.859.087,22.853,22.853,0,0,1,10.6-10.221,3.08,3.08,0,0,1,3,.2,3.025,3.025,0,0,1,1.409,2.578,3.1,3.1,0,0,1-1.657,2.845,16.606,16.606,0,0,0-7.812,7.492,26.268,26.268,0,0,1-46.939-.05Zm23.209,32.795,46.161,110.3H290.847Zm0,179.5a59.68,59.68,0,0,1-55.582-38.154H392.591a59.682,59.682,0,0,1-55.583,38.152Zm59.806-59.587a60.878,60.878,0,0,1-1.413,11.881H278.614a60.7,60.7,0,0,1-1.2-11.881v-.059h119.4Z" transform="translate(-2 -34.997)" fill="#d81b60"/>
</svg>
